<svg id="Layer_1" data-name="Layer 1" xmlns="http://www.w3.org/2000/svg" viewBox="0 0 465.5 205"><defs><style>.cls-1{fill:#ed1c24;}.cls-2,.cls-3{fill:#524fa1;}.cls-3{font-size:39.6px;font-family:Futura-Medium, Futura;font-weight:500;}.cls-4{letter-spacing:-0.02em;}</style></defs><path class="cls-1" d="M348.85,163c-8.31,9.79-22.31,18.54-38.32,18.54-17,0-30.08-8.75-38.23-18.54h-23a64.41,64.41,0,0,0,10.1,13.67q20.76,21.5,51.16,21.49t51.28-21.49A65.15,65.15,0,0,0,371.92,163Z"/><path class="cls-1" d="M78.62,186.87v-50Q68.13,147.59,54.68,147.6A32.87,32.87,0,0,1,29.1,136.25Q18.84,124.83,18.85,107.7q0-17.37,10.25-29A33.22,33.22,0,0,1,55,67.09q13.23,0,23.63,10.41V69.2H96.3V186.87Zm-41.78-80q0,11,5.95,17.92a18.9,18.9,0,0,0,15.1,7q9.69,0,15.72-6.73t6.11-17.68q0-10.71-6-17.68A19.92,19.92,0,0,0,58,83a19.44,19.44,0,0,0-15.17,6.89A25.12,25.12,0,0,0,36.84,106.91Z"/><path class="cls-2" d="M128.07,69.2l20,43.5,21.51-50.46L191.2,112.7l19.72-43.5h19.72l-39.9,81.92-21.21-49.06L148.1,151.12,108.27,69.2Z"/><path class="cls-1" d="M239.87,37.52a11.49,11.49,0,0,1,11.42-11.35,11.07,11.07,0,0,1,8.14,3.37,10.82,10.82,0,0,1,3.36,8.05,11.08,11.08,0,0,1-3.36,8.14,10.85,10.85,0,0,1-8.06,3.37,11.49,11.49,0,0,1-11.5-11.58Z"/><rect class="cls-2" x="242.53" y="69.2" width="17.6" height="76.2"/><path class="cls-2" d="M300,13.26V93.85l24.8-24.65h23.63l-33.09,32,35.52,44.21H328l-25.19-32.16L300,116.07v29.34h-17.6V13.26Z"/><path class="cls-1" d="M359.57,37.52A11.51,11.51,0,0,1,371,26.17a11,11,0,0,1,8.13,3.37,10.83,10.83,0,0,1,3.37,8.05,11.09,11.09,0,0,1-3.37,8.14,10.85,10.85,0,0,1-8.06,3.37,11.51,11.51,0,0,1-11.5-11.58Z"/><rect class="cls-2" x="362.23" y="69.2" width="17.6" height="76.2"/><text class="cls-3" transform="translate(396.18 44.07)">d<tspan class="cls-4" x="23.75" y="0">e</tspan><tspan x="44.98" y="0">v</tspan></text></svg>